<?xml version="1.0" encoding="UTF-8" standalone="no"?>
<!DOCTYPE svg PUBLIC "-//W3C//DTD SVG 1.1//EN"
 "http://www.w3.org/Graphics/SVG/1.1/DTD/svg11.dtd">
<!-- Generated by graphviz version 2.26.3 (20100126.1600)
 -->
<!-- Title: controllers_diagram Pages: 1 -->
<svg width="651pt" height="723pt"
 viewBox="0.00 0.00 651.00 723.00" xmlns="http://www.w3.org/2000/svg" xmlns:xlink="http://www.w3.org/1999/xlink">
<g id="graph1" class="graph" transform="scale(1 1) rotate(0) translate(4 719)">
<title>controllers_diagram</title>
<polygon fill="none" stroke="none" points="-4,5 -4,-719 648,-719 648,5 -4,5"/>
<!-- _diagram_info -->
<g id="node1" class="node"><title>_diagram_info</title>
<text text-anchor="start" x="369" y="-222.3" font-family="Times Roman,serif" font-size="13.00">Controllers diagram</text>
<text text-anchor="start" x="369" y="-205.3" font-family="Times Roman,serif" font-size="13.00">Date: Dec 05 2016 &#45; 21:52</text>
<text text-anchor="start" x="369" y="-188.3" font-family="Times Roman,serif" font-size="13.00">Migration version: 20161206004624</text>
<text text-anchor="start" x="369" y="-171.3" font-family="Times Roman,serif" font-size="13.00">Generated by RailRoady 1.5.2</text>
<text text-anchor="start" x="369" y="-154.3" font-family="Times Roman,serif" font-size="13.00">http://railroady.prestonlee.com</text>
</g>
<!-- ProductsController -->
<g id="node2" class="node"><title>ProductsController</title>
<polyline fill="none" stroke="black" points="463,-1.5 585,-1.5 "/>
<path fill="none" stroke="black" d="M585,-1.5C591,-1.5 597,-7.5 597,-13.5"/>
<polyline fill="none" stroke="black" points="597,-13.5 597,-91.5 "/>
<path fill="none" stroke="black" d="M597,-91.5C597,-97.5 591,-103.5 585,-103.5"/>
<polyline fill="none" stroke="black" points="585,-103.5 463,-103.5 "/>
<path fill="none" stroke="black" d="M463,-103.5C457,-103.5 451,-97.5 451,-91.5"/>
<polyline fill="none" stroke="black" points="451,-91.5 451,-13.5 "/>
<path fill="none" stroke="black" d="M451,-13.5C451,-7.5 457,-1.5 463,-1.5"/>
<text text-anchor="middle" x="524" y="-86.9" font-family="Times Roman,serif" font-size="14.00">ProductsController</text>
<polyline fill="none" stroke="black" points="451,-77.5 597,-77.5 "/>
<text text-anchor="start" x="459" y="-60.9" font-family="Times Roman,serif" font-size="14.00">index</text>
<polyline fill="none" stroke="black" points="451,-51.5 597,-51.5 "/>
<polyline fill="none" stroke="black" points="451,-27.5 597,-27.5 "/>
<text text-anchor="start" x="459" y="-10.9" font-family="Times Roman,serif" font-size="14.00">_layout</text>
</g>
<!-- ApplicationController -->
<g id="node3" class="node"><title>ApplicationController</title>
<polyline fill="none" stroke="black" points="265,-613.5 402,-613.5 "/>
<path fill="none" stroke="black" d="M402,-613.5C408,-613.5 414,-619.5 414,-625.5"/>
<polyline fill="none" stroke="black" points="414,-625.5 414,-701.5 "/>
<path fill="none" stroke="black" d="M414,-701.5C414,-707.5 408,-713.5 402,-713.5"/>
<polyline fill="none" stroke="black" points="402,-713.5 265,-713.5 "/>
<path fill="none" stroke="black" d="M265,-713.5C259,-713.5 253,-707.5 253,-701.5"/>
<polyline fill="none" stroke="black" points="253,-701.5 253,-625.5 "/>
<path fill="none" stroke="black" d="M253,-625.5C253,-619.5 259,-613.5 265,-613.5"/>
<text text-anchor="middle" x="333.5" y="-696.9" font-family="Times Roman,serif" font-size="14.00">ApplicationController</text>
<polyline fill="none" stroke="black" points="253,-687.5 414,-687.5 "/>
<polyline fill="none" stroke="black" points="253,-663.5 414,-663.5 "/>
<polyline fill="none" stroke="black" points="253,-639.5 414,-639.5 "/>
<text text-anchor="start" x="261" y="-622.9" font-family="Times Roman,serif" font-size="14.00">_layout</text>
</g>
<!-- Users::SessionsController -->
<g id="node4" class="node"><title>Users::SessionsController</title>
<polyline fill="none" stroke="black" points="463,-523.5 630,-523.5 "/>
<path fill="none" stroke="black" d="M630,-523.5C636,-523.5 642,-529.5 642,-535.5"/>
<polyline fill="none" stroke="black" points="642,-535.5 642,-611.5 "/>
<path fill="none" stroke="black" d="M642,-611.5C642,-617.5 636,-623.5 630,-623.5"/>
<polyline fill="none" stroke="black" points="630,-623.5 463,-623.5 "/>
<path fill="none" stroke="black" d="M463,-623.5C457,-623.5 451,-617.5 451,-611.5"/>
<polyline fill="none" stroke="black" points="451,-611.5 451,-535.5 "/>
<path fill="none" stroke="black" d="M451,-535.5C451,-529.5 457,-523.5 463,-523.5"/>
<text text-anchor="middle" x="546.5" y="-606.9" font-family="Times Roman,serif" font-size="14.00">Users::SessionsController</text>
<polyline fill="none" stroke="black" points="451,-597.5 642,-597.5 "/>
<polyline fill="none" stroke="black" points="451,-573.5 642,-573.5 "/>
<polyline fill="none" stroke="black" points="451,-549.5 642,-549.5 "/>
<text text-anchor="start" x="459" y="-532.9" font-family="Times Roman,serif" font-size="14.00">_layout</text>
</g>
<!-- Users::PasswordsController -->
<g id="node5" class="node"><title>Users::PasswordsController</title>
<polyline fill="none" stroke="black" points="13,-73.5 194,-73.5 "/>
<path fill="none" stroke="black" d="M194,-73.5C200,-73.5 206,-79.5 206,-85.5"/>
<polyline fill="none" stroke="black" points="206,-85.5 206,-161.5 "/>
<path fill="none" stroke="black" d="M206,-161.5C206,-167.5 200,-173.5 194,-173.5"/>
<polyline fill="none" stroke="black" points="194,-173.5 13,-173.5 "/>
<path fill="none" stroke="black" d="M13,-173.5C7,-173.5 1,-167.5 1,-161.5"/>
<polyline fill="none" stroke="black" points="1,-161.5 1,-85.5 "/>
<path fill="none" stroke="black" d="M1,-85.5C1,-79.5 7,-73.5 13,-73.5"/>
<text text-anchor="middle" x="103.5" y="-156.9" font-family="Times Roman,serif" font-size="14.00">Users::PasswordsController</text>
<polyline fill="none" stroke="black" points="1,-147.5 206,-147.5 "/>
<polyline fill="none" stroke="black" points="1,-123.5 206,-123.5 "/>
<polyline fill="none" stroke="black" points="1,-99.5 206,-99.5 "/>
<text text-anchor="start" x="9" y="-82.9" font-family="Times Roman,serif" font-size="14.00">_layout</text>
</g>
<!-- Users::RegistrationsController -->
<g id="node6" class="node"><title>Users::RegistrationsController</title>
<polyline fill="none" stroke="black" points="85,-217.5 316,-217.5 "/>
<path fill="none" stroke="black" d="M316,-217.5C322,-217.5 328,-223.5 328,-229.5"/>
<polyline fill="none" stroke="black" points="328,-229.5 328,-325.5 "/>
<path fill="none" stroke="black" d="M328,-325.5C328,-331.5 322,-337.5 316,-337.5"/>
<polyline fill="none" stroke="black" points="316,-337.5 85,-337.5 "/>
<path fill="none" stroke="black" d="M85,-337.5C79,-337.5 73,-331.5 73,-325.5"/>
<polyline fill="none" stroke="black" points="73,-325.5 73,-229.5 "/>
<path fill="none" stroke="black" d="M73,-229.5C73,-223.5 79,-217.5 85,-217.5"/>
<text text-anchor="middle" x="200.5" y="-320.9" font-family="Times Roman,serif" font-size="14.00">Users::RegistrationsController</text>
<polyline fill="none" stroke="black" points="73,-311.5 328,-311.5 "/>
<polyline fill="none" stroke="black" points="73,-287.5 328,-287.5 "/>
<text text-anchor="start" x="81" y="-270.9" font-family="Times Roman,serif" font-size="14.00">configure_account_update_params</text>
<text text-anchor="start" x="81" y="-252.9" font-family="Times Roman,serif" font-size="14.00">configure_sign_up_params</text>
<polyline fill="none" stroke="black" points="73,-243.5 328,-243.5 "/>
<text text-anchor="start" x="81" y="-226.9" font-family="Times Roman,serif" font-size="14.00">_layout</text>
</g>
<!-- Users::UnlocksController -->
<g id="node7" class="node"><title>Users::UnlocksController</title>
<polyline fill="none" stroke="black" points="247,-1.5 409,-1.5 "/>
<path fill="none" stroke="black" d="M409,-1.5C415,-1.5 421,-7.5 421,-13.5"/>
<polyline fill="none" stroke="black" points="421,-13.5 421,-89.5 "/>
<path fill="none" stroke="black" d="M421,-89.5C421,-95.5 415,-101.5 409,-101.5"/>
<polyline fill="none" stroke="black" points="409,-101.5 247,-101.5 "/>
<path fill="none" stroke="black" d="M247,-101.5C241,-101.5 235,-95.5 235,-89.5"/>
<polyline fill="none" stroke="black" points="235,-89.5 235,-13.5 "/>
<path fill="none" stroke="black" d="M235,-13.5C235,-7.5 241,-1.5 247,-1.5"/>
<text text-anchor="middle" x="328" y="-84.9" font-family="Times Roman,serif" font-size="14.00">Users::UnlocksController</text>
<polyline fill="none" stroke="black" points="235,-75.5 421,-75.5 "/>
<polyline fill="none" stroke="black" points="235,-51.5 421,-51.5 "/>
<polyline fill="none" stroke="black" points="235,-27.5 421,-27.5 "/>
<text text-anchor="start" x="243" y="-10.9" font-family="Times Roman,serif" font-size="14.00">_layout</text>
</g>
<!-- Users::OmniauthCallbacksController -->
<g id="node8" class="node"><title>Users::OmniauthCallbacksController</title>
<polyline fill="none" stroke="black" points="319,-379.5 561,-379.5 "/>
<path fill="none" stroke="black" d="M561,-379.5C567,-379.5 573,-385.5 573,-391.5"/>
<polyline fill="none" stroke="black" points="573,-391.5 573,-467.5 "/>
<path fill="none" stroke="black" d="M573,-467.5C573,-473.5 567,-479.5 561,-479.5"/>
<polyline fill="none" stroke="black" points="561,-479.5 319,-479.5 "/>
<path fill="none" stroke="black" d="M319,-479.5C313,-479.5 307,-473.5 307,-467.5"/>
<polyline fill="none" stroke="black" points="307,-467.5 307,-391.5 "/>
<path fill="none" stroke="black" d="M307,-391.5C307,-385.5 313,-379.5 319,-379.5"/>
<text text-anchor="middle" x="440" y="-462.9" font-family="Times Roman,serif" font-size="14.00">Users::OmniauthCallbacksController</text>
<polyline fill="none" stroke="black" points="307,-453.5 573,-453.5 "/>
<polyline fill="none" stroke="black" points="307,-429.5 573,-429.5 "/>
<polyline fill="none" stroke="black" points="307,-405.5 573,-405.5 "/>
<text text-anchor="start" x="315" y="-388.9" font-family="Times Roman,serif" font-size="14.00">_layout</text>
</g>
<!-- Users::ConfirmationsController -->
<g id="node9" class="node"><title>Users::ConfirmationsController</title>
<polyline fill="none" stroke="black" points="49,-469.5 254,-469.5 "/>
<path fill="none" stroke="black" d="M254,-469.5C260,-469.5 266,-475.5 266,-481.5"/>
<polyline fill="none" stroke="black" points="266,-481.5 266,-557.5 "/>
<path fill="none" stroke="black" d="M266,-557.5C266,-563.5 260,-569.5 254,-569.5"/>
<polyline fill="none" stroke="black" points="254,-569.5 49,-569.5 "/>
<path fill="none" stroke="black" d="M49,-569.5C43,-569.5 37,-563.5 37,-557.5"/>
<polyline fill="none" stroke="black" points="37,-557.5 37,-481.5 "/>
<path fill="none" stroke="black" d="M37,-481.5C37,-475.5 43,-469.5 49,-469.5"/>
<text text-anchor="middle" x="151.5" y="-552.9" font-family="Times Roman,serif" font-size="14.00">Users::ConfirmationsController</text>
<polyline fill="none" stroke="black" points="37,-543.5 266,-543.5 "/>
<polyline fill="none" stroke="black" points="37,-519.5 266,-519.5 "/>
<polyline fill="none" stroke="black" points="37,-495.5 266,-495.5 "/>
<text text-anchor="start" x="45" y="-478.9" font-family="Times Roman,serif" font-size="14.00">_layout</text>
</g>
</g>
</svg>
