<?xml version="1.0" encoding="UTF-8" standalone="no"?>
<!DOCTYPE svg PUBLIC "-//W3C//DTD SVG 1.1//EN"
 "http://www.w3.org/Graphics/SVG/1.1/DTD/svg11.dtd">
<!-- Generated by graphviz version 2.26.3 (20100126.1600)
 -->
<!-- Title: models_diagram Pages: 1 -->
<svg width="1540pt" height="674pt"
 viewBox="0.00 0.00 1540.00 674.00" xmlns="http://www.w3.org/2000/svg" xmlns:xlink="http://www.w3.org/1999/xlink">
<g id="graph1" class="graph" transform="scale(1 1) rotate(0) translate(4 670)">
<title>models_diagram</title>
<polygon fill="none" stroke="none" points="-4,5 -4,-670 1537,-670 1537,5 -4,5"/>
<!-- _diagram_info -->
<g id="node1" class="node"><title>_diagram_info</title>
<text text-anchor="start" x="8" y="-552.8" font-family="Times Roman,serif" font-size="13.00">Models diagram</text>
<text text-anchor="start" x="8" y="-535.8" font-family="Times Roman,serif" font-size="13.00">Date: Dec 05 2016 &#45; 21:52</text>
<text text-anchor="start" x="8" y="-518.8" font-family="Times Roman,serif" font-size="13.00">Migration version: 20161206004624</text>
<text text-anchor="start" x="8" y="-501.8" font-family="Times Roman,serif" font-size="13.00">Generated by RailRoady 1.5.2</text>
<text text-anchor="start" x="8" y="-484.8" font-family="Times Roman,serif" font-size="13.00">http://railroady.prestonlee.com</text>
</g>
<!-- Cart -->
<g id="node2" class="node"><title>Cart</title>
<polyline fill="none" stroke="black" points="605.5,-172 890.5,-172 "/>
<path fill="none" stroke="black" d="M890.5,-172C896.5,-172 902.5,-178 902.5,-184"/>
<polyline fill="none" stroke="black" points="902.5,-184 902.5,-320 "/>
<path fill="none" stroke="black" d="M902.5,-320C902.5,-326 896.5,-332 890.5,-332"/>
<polyline fill="none" stroke="black" points="890.5,-332 605.5,-332 "/>
<path fill="none" stroke="black" d="M605.5,-332C599.5,-332 593.5,-326 593.5,-320"/>
<polyline fill="none" stroke="black" points="593.5,-320 593.5,-184 "/>
<path fill="none" stroke="black" d="M593.5,-184C593.5,-178 599.5,-172 605.5,-172"/>
<text text-anchor="middle" x="748" y="-315.4" font-family="Times Roman,serif" font-size="14.00">Cart</text>
<polyline fill="none" stroke="black" points="593.5,-306 902.5,-306 "/>
<text text-anchor="start" x="601.5" y="-289.4" font-family="Times Roman,serif" font-size="14.00">id :integer</text>
<text text-anchor="start" x="601.5" y="-271.4" font-family="Times Roman,serif" font-size="14.00">total :integer</text>
<text text-anchor="start" x="601.5" y="-253.4" font-family="Times Roman,serif" font-size="14.00">state :character varying</text>
<text text-anchor="start" x="601.5" y="-235.4" font-family="Times Roman,serif" font-size="14.00">user_id :integer</text>
<text text-anchor="start" x="601.5" y="-217.4" font-family="Times Roman,serif" font-size="14.00">created_at :timestamp without time zone</text>
<text text-anchor="start" x="601.5" y="-199.4" font-family="Times Roman,serif" font-size="14.00">updated_at :timestamp without time zone</text>
<text text-anchor="start" x="601.5" y="-181.4" font-family="Times Roman,serif" font-size="14.00">payment_id :integer</text>
</g>
<!-- Order -->
<g id="node4" class="node"><title>Order</title>
<polyline fill="none" stroke="black" points="442.5,-1 727.5,-1 "/>
<path fill="none" stroke="black" d="M727.5,-1C733.5,-1 739.5,-7 739.5,-13"/>
<polyline fill="none" stroke="black" points="739.5,-13 739.5,-113 "/>
<path fill="none" stroke="black" d="M739.5,-113C739.5,-119 733.5,-125 727.5,-125"/>
<polyline fill="none" stroke="black" points="727.5,-125 442.5,-125 "/>
<path fill="none" stroke="black" d="M442.5,-125C436.5,-125 430.5,-119 430.5,-113"/>
<polyline fill="none" stroke="black" points="430.5,-113 430.5,-13 "/>
<path fill="none" stroke="black" d="M430.5,-13C430.5,-7 436.5,-1 442.5,-1"/>
<text text-anchor="middle" x="585" y="-108.4" font-family="Times Roman,serif" font-size="14.00">Order</text>
<polyline fill="none" stroke="black" points="430.5,-99 739.5,-99 "/>
<text text-anchor="start" x="438.5" y="-82.4" font-family="Times Roman,serif" font-size="14.00">id :integer</text>
<text text-anchor="start" x="438.5" y="-64.4" font-family="Times Roman,serif" font-size="14.00">product_id :integer</text>
<text text-anchor="start" x="438.5" y="-46.4" font-family="Times Roman,serif" font-size="14.00">cart_id :integer</text>
<text text-anchor="start" x="438.5" y="-28.4" font-family="Times Roman,serif" font-size="14.00">created_at :timestamp without time zone</text>
<text text-anchor="start" x="438.5" y="-10.4" font-family="Times Roman,serif" font-size="14.00">updated_at :timestamp without time zone</text>
</g>
<!-- Cart&#45;&gt;Order -->
<g id="edge2" class="edge"><title>Cart&#45;&gt;Order</title>
<path fill="none" stroke="#1d2d36" d="M673.494,-165.609C664.042,-154.65 654.464,-143.544 645.273,-132.887"/>
<ellipse fill="none" stroke="#1d2d36" cx="676.261" cy="-168.818" rx="4.00002" ry="4.00002"/>
<polygon fill="#1d2d36" stroke="#1d2d36" points="645.187,-132.788 642.064,-122.276 641.922,-129.001 638.656,-125.215 638.656,-125.215 638.656,-125.215 641.922,-129.001 635.249,-128.154 645.187,-132.788 645.187,-132.788"/>
</g>
<!-- Category -->
<g id="node3" class="node"><title>Category</title>
<polyline fill="none" stroke="black" points="279.5,-469 564.5,-469 "/>
<path fill="none" stroke="black" d="M564.5,-469C570.5,-469 576.5,-475 576.5,-481"/>
<polyline fill="none" stroke="black" points="576.5,-481 576.5,-563 "/>
<path fill="none" stroke="black" d="M576.5,-563C576.5,-569 570.5,-575 564.5,-575"/>
<polyline fill="none" stroke="black" points="564.5,-575 279.5,-575 "/>
<path fill="none" stroke="black" d="M279.5,-575C273.5,-575 267.5,-569 267.5,-563"/>
<polyline fill="none" stroke="black" points="267.5,-563 267.5,-481 "/>
<path fill="none" stroke="black" d="M267.5,-481C267.5,-475 273.5,-469 279.5,-469"/>
<text text-anchor="middle" x="422" y="-558.4" font-family="Times Roman,serif" font-size="14.00">Category</text>
<polyline fill="none" stroke="black" points="267.5,-549 576.5,-549 "/>
<text text-anchor="start" x="275.5" y="-532.4" font-family="Times Roman,serif" font-size="14.00">id :integer</text>
<text text-anchor="start" x="275.5" y="-514.4" font-family="Times Roman,serif" font-size="14.00">name :character varying</text>
<text text-anchor="start" x="275.5" y="-496.4" font-family="Times Roman,serif" font-size="14.00">created_at :timestamp without time zone</text>
<text text-anchor="start" x="275.5" y="-478.4" font-family="Times Roman,serif" font-size="14.00">updated_at :timestamp without time zone</text>
</g>
<!-- Product -->
<g id="node7" class="node"><title>Product</title>
<polyline fill="none" stroke="black" points="279.5,-163 564.5,-163 "/>
<path fill="none" stroke="black" d="M564.5,-163C570.5,-163 576.5,-169 576.5,-175"/>
<polyline fill="none" stroke="black" points="576.5,-175 576.5,-329 "/>
<path fill="none" stroke="black" d="M576.5,-329C576.5,-335 570.5,-341 564.5,-341"/>
<polyline fill="none" stroke="black" points="564.5,-341 279.5,-341 "/>
<path fill="none" stroke="black" d="M279.5,-341C273.5,-341 267.5,-335 267.5,-329"/>
<polyline fill="none" stroke="black" points="267.5,-329 267.5,-175 "/>
<path fill="none" stroke="black" d="M267.5,-175C267.5,-169 273.5,-163 279.5,-163"/>
<text text-anchor="middle" x="422" y="-324.4" font-family="Times Roman,serif" font-size="14.00">Product</text>
<polyline fill="none" stroke="black" points="267.5,-315 576.5,-315 "/>
<text text-anchor="start" x="275.5" y="-298.4" font-family="Times Roman,serif" font-size="14.00">id :integer</text>
<text text-anchor="start" x="275.5" y="-280.4" font-family="Times Roman,serif" font-size="14.00">name :character varying</text>
<text text-anchor="start" x="275.5" y="-262.4" font-family="Times Roman,serif" font-size="14.00">stock :integer</text>
<text text-anchor="start" x="275.5" y="-244.4" font-family="Times Roman,serif" font-size="14.00">photo :character varying</text>
<text text-anchor="start" x="275.5" y="-226.4" font-family="Times Roman,serif" font-size="14.00">price :integer</text>
<text text-anchor="start" x="275.5" y="-208.4" font-family="Times Roman,serif" font-size="14.00">category_id :integer</text>
<text text-anchor="start" x="275.5" y="-190.4" font-family="Times Roman,serif" font-size="14.00">created_at :timestamp without time zone</text>
<text text-anchor="start" x="275.5" y="-172.4" font-family="Times Roman,serif" font-size="14.00">updated_at :timestamp without time zone</text>
</g>
<!-- Category&#45;&gt;Product -->
<g id="edge4" class="edge"><title>Category&#45;&gt;Product</title>
<path fill="none" stroke="#633e2e" d="M422,-460.671C422,-428.355 422,-387.92 422,-351.271"/>
<ellipse fill="none" stroke="#633e2e" cx="422" cy="-464.979" rx="4" ry="4"/>
<polygon fill="#633e2e" stroke="#633e2e" points="422,-351.044 426.5,-341.044 422,-346.044 422,-341.044 422,-341.044 422,-341.044 422,-346.044 417.5,-341.045 422,-351.044 422,-351.044"/>
</g>
<!-- Payment -->
<g id="node5" class="node"><title>Payment</title>
<polyline fill="none" stroke="black" points="605.5,-469 890.5,-469 "/>
<path fill="none" stroke="black" d="M890.5,-469C896.5,-469 902.5,-475 902.5,-481"/>
<polyline fill="none" stroke="black" points="902.5,-481 902.5,-563 "/>
<path fill="none" stroke="black" d="M902.5,-563C902.5,-569 896.5,-575 890.5,-575"/>
<polyline fill="none" stroke="black" points="890.5,-575 605.5,-575 "/>
<path fill="none" stroke="black" d="M605.5,-575C599.5,-575 593.5,-569 593.5,-563"/>
<polyline fill="none" stroke="black" points="593.5,-563 593.5,-481 "/>
<path fill="none" stroke="black" d="M593.5,-481C593.5,-475 599.5,-469 605.5,-469"/>
<text text-anchor="middle" x="748" y="-558.4" font-family="Times Roman,serif" font-size="14.00">Payment</text>
<polyline fill="none" stroke="black" points="593.5,-549 902.5,-549 "/>
<text text-anchor="start" x="601.5" y="-532.4" font-family="Times Roman,serif" font-size="14.00">id :integer</text>
<text text-anchor="start" x="601.5" y="-514.4" font-family="Times Roman,serif" font-size="14.00">amount :integer</text>
<text text-anchor="start" x="601.5" y="-496.4" font-family="Times Roman,serif" font-size="14.00">created_at :timestamp without time zone</text>
<text text-anchor="start" x="601.5" y="-478.4" font-family="Times Roman,serif" font-size="14.00">updated_at :timestamp without time zone</text>
</g>
<!-- Payment&#45;&gt;Cart -->
<g id="edge6" class="edge"><title>Payment&#45;&gt;Cart</title>
<path fill="none" stroke="#1e01a8" d="M748,-460.541C748,-425.588 748,-381.17 748,-342.317"/>
<ellipse fill="none" stroke="#1e01a8" cx="748" cy="-464.979" rx="4" ry="4"/>
<polygon fill="#1e01a8" stroke="#1e01a8" points="748,-342.046 752.5,-332.045 748,-337.046 748,-332.046 748,-332.046 748,-332.046 748,-337.046 743.5,-332.046 748,-342.046 748,-342.046"/>
</g>
<!-- ApplicationRecord -->
<g id="node6" class="node"><title>ApplicationRecord</title>
<ellipse fill="none" stroke="black" cx="1434" cy="-522" rx="97.7889" ry="18.3848"/>
<text text-anchor="middle" x="1434" y="-518.4" font-family="Times Roman,serif" font-size="14.00">ApplicationRecord</text>
</g>
<!-- Product&#45;&gt;Order -->
<g id="edge8" class="edge"><title>Product&#45;&gt;Order</title>
<path fill="none" stroke="#b4d928" d="M504.367,-156.495C511.249,-148.515 518.124,-140.544 524.793,-132.81"/>
<ellipse fill="none" stroke="#b4d928" cx="501.578" cy="-159.729" rx="4.00002" ry="4.00002"/>
<polygon fill="#b4d928" stroke="#b4d928" points="524.856,-132.737 534.795,-128.103 528.122,-128.951 531.387,-125.164 531.387,-125.164 531.387,-125.164 528.122,-128.951 527.98,-122.225 524.856,-132.737 524.856,-132.737"/>
</g>
<!-- User -->
<g id="node8" class="node"><title>User</title>
<polyline fill="none" stroke="black" points="932,-379 1306,-379 "/>
<path fill="none" stroke="black" d="M1306,-379C1312,-379 1318,-385 1318,-391"/>
<polyline fill="none" stroke="black" points="1318,-391 1318,-653 "/>
<path fill="none" stroke="black" d="M1318,-653C1318,-659 1312,-665 1306,-665"/>
<polyline fill="none" stroke="black" points="1306,-665 932,-665 "/>
<path fill="none" stroke="black" d="M932,-665C926,-665 920,-659 920,-653"/>
<polyline fill="none" stroke="black" points="920,-653 920,-391 "/>
<path fill="none" stroke="black" d="M920,-391C920,-385 926,-379 932,-379"/>
<text text-anchor="middle" x="1119" y="-648.4" font-family="Times Roman,serif" font-size="14.00">User</text>
<polyline fill="none" stroke="black" points="920,-639 1318,-639 "/>
<text text-anchor="start" x="928" y="-622.4" font-family="Times Roman,serif" font-size="14.00">id :integer</text>
<text text-anchor="start" x="928" y="-604.4" font-family="Times Roman,serif" font-size="14.00">email :character varying</text>
<text text-anchor="start" x="928" y="-586.4" font-family="Times Roman,serif" font-size="14.00">encrypted_password :character varying</text>
<text text-anchor="start" x="928" y="-568.4" font-family="Times Roman,serif" font-size="14.00">reset_password_token :character varying</text>
<text text-anchor="start" x="928" y="-550.4" font-family="Times Roman,serif" font-size="14.00">reset_password_sent_at :timestamp without time zone</text>
<text text-anchor="start" x="928" y="-532.4" font-family="Times Roman,serif" font-size="14.00">remember_created_at :timestamp without time zone</text>
<text text-anchor="start" x="928" y="-514.4" font-family="Times Roman,serif" font-size="14.00">sign_in_count :integer</text>
<text text-anchor="start" x="928" y="-496.4" font-family="Times Roman,serif" font-size="14.00">current_sign_in_at :timestamp without time zone</text>
<text text-anchor="start" x="928" y="-478.4" font-family="Times Roman,serif" font-size="14.00">last_sign_in_at :timestamp without time zone</text>
<text text-anchor="start" x="928" y="-460.4" font-family="Times Roman,serif" font-size="14.00">current_sign_in_ip :inet</text>
<text text-anchor="start" x="928" y="-442.4" font-family="Times Roman,serif" font-size="14.00">last_sign_in_ip :inet</text>
<text text-anchor="start" x="928" y="-424.4" font-family="Times Roman,serif" font-size="14.00">created_at :timestamp without time zone</text>
<text text-anchor="start" x="928" y="-406.4" font-family="Times Roman,serif" font-size="14.00">updated_at :timestamp without time zone</text>
<text text-anchor="start" x="928" y="-388.4" font-family="Times Roman,serif" font-size="14.00">name :character varying</text>
</g>
<!-- User&#45;&gt;Cart -->
<g id="edge10" class="edge"><title>User&#45;&gt;Cart</title>
<path fill="none" stroke="#f57266" d="M915.655,-374.013C898.827,-361.767 882.198,-349.664 866.327,-338.114"/>
<ellipse fill="none" stroke="#f57266" cx="919.131" cy="-376.543" rx="4.00002" ry="4.00002"/>
<polygon fill="#f57266" stroke="#f57266" points="866.185,-338.011 860.748,-328.488 862.142,-335.069 858.1,-332.126 858.1,-332.126 858.1,-332.126 862.142,-335.069 855.452,-335.765 866.185,-338.011 866.185,-338.011"/>
</g>
</g>
</svg>
