<?xml version="1.0" encoding="UTF-8" standalone="no"?>
<!DOCTYPE svg PUBLIC "-//W3C//DTD SVG 1.1//EN"
 "http://www.w3.org/Graphics/SVG/1.1/DTD/svg11.dtd">
<!-- Generated by graphviz version 2.26.3 (20100126.1600)
 -->
<!-- Title: models_diagram Pages: 1 -->
<svg width="814pt" height="250pt"
 viewBox="0.00 0.00 814.00 250.00" xmlns="http://www.w3.org/2000/svg" xmlns:xlink="http://www.w3.org/1999/xlink">
<g id="graph1" class="graph" transform="scale(1 1) rotate(0) translate(4 246)">
<title>models_diagram</title>
<polygon fill="none" stroke="none" points="-4,5 -4,-246 811,-246 811,5 -4,5"/>
<!-- _diagram_info -->
<g id="node1" class="node"><title>_diagram_info</title>
<text text-anchor="start" x="8" y="-225.8" font-family="Times Roman,serif" font-size="13.00">Models diagram</text>
<text text-anchor="start" x="8" y="-208.8" font-family="Times Roman,serif" font-size="13.00">Date: Dec 05 2016 &#45; 21:52</text>
<text text-anchor="start" x="8" y="-191.8" font-family="Times Roman,serif" font-size="13.00">Migration version: 20161206004624</text>
<text text-anchor="start" x="8" y="-174.8" font-family="Times Roman,serif" font-size="13.00">Generated by RailRoady 1.5.2</text>
<text text-anchor="start" x="8" y="-157.8" font-family="Times Roman,serif" font-size="13.00">http://railroady.prestonlee.com</text>
</g>
<!-- Cart -->
<g id="node2" class="node"><title>Cart</title>
<ellipse fill="none" stroke="black" cx="452" cy="-93" rx="33.234" ry="18.3848"/>
<text text-anchor="middle" x="452" y="-89.4" font-family="Times Roman,serif" font-size="14.00">Cart</text>
</g>
<!-- Order -->
<g id="node4" class="node"><title>Order</title>
<ellipse fill="none" stroke="black" cx="402" cy="-19" rx="39.0967" ry="18.3848"/>
<text text-anchor="middle" x="402" y="-15.4" font-family="Times Roman,serif" font-size="14.00">Order</text>
</g>
<!-- Cart&#45;&gt;Order -->
<g id="edge2" class="edge"><title>Cart&#45;&gt;Order</title>
<path fill="none" stroke="#371779" d="M435.473,-68.54C430.415,-61.0535 424.831,-52.7902 419.698,-45.1932"/>
<ellipse fill="none" stroke="#371779" cx="437.911" cy="-72.1487" rx="4.00002" ry="4.00002"/>
<polygon fill="#371779" stroke="#371779" points="419.536,-44.9534 417.666,-34.1482 416.737,-40.8105 413.938,-36.6675 413.938,-36.6675 413.938,-36.6675 416.737,-40.8105 410.209,-39.1869 419.536,-44.9534 419.536,-44.9534"/>
</g>
<!-- Category -->
<g id="node3" class="node"><title>Category</title>
<ellipse fill="none" stroke="black" cx="324" cy="-195" rx="56.0679" ry="18.3848"/>
<text text-anchor="middle" x="324" y="-191.4" font-family="Times Roman,serif" font-size="14.00">Category</text>
</g>
<!-- Product -->
<g id="node7" class="node"><title>Product</title>
<ellipse fill="none" stroke="black" cx="338" cy="-93" rx="48.9975" ry="18.3848"/>
<text text-anchor="middle" x="338" y="-89.4" font-family="Times Roman,serif" font-size="14.00">Product</text>
</g>
<!-- Category&#45;&gt;Product -->
<g id="edge4" class="edge"><title>Category&#45;&gt;Product</title>
<path fill="none" stroke="#bf5090" d="M327.704,-168.015C329.669,-153.696 332.084,-136.103 334.081,-121.555"/>
<ellipse fill="none" stroke="#bf5090" cx="327.112" cy="-172.329" rx="4.00001" ry="4.00001"/>
<polygon fill="#bf5090" stroke="#bf5090" points="334.089,-121.497 339.907,-112.202 334.769,-116.543 335.448,-111.59 335.448,-111.59 335.448,-111.59 334.769,-116.543 330.99,-110.978 334.089,-121.497 334.089,-121.497"/>
</g>
<!-- Payment -->
<g id="node5" class="node"><title>Payment</title>
<ellipse fill="none" stroke="black" cx="452" cy="-195" rx="53.9477" ry="18.3848"/>
<text text-anchor="middle" x="452" y="-191.4" font-family="Times Roman,serif" font-size="14.00">Payment</text>
</g>
<!-- Payment&#45;&gt;Cart -->
<g id="edge6" class="edge"><title>Payment&#45;&gt;Cart</title>
<path fill="none" stroke="#cf0648" d="M452,-168.015C452,-153.835 452,-136.445 452,-121.98"/>
<ellipse fill="none" stroke="#cf0648" cx="452" cy="-172.292" rx="4" ry="4"/>
<polygon fill="#cf0648" stroke="#cf0648" points="452,-121.59 456.5,-111.59 452,-116.59 452,-111.59 452,-111.59 452,-111.59 452,-116.59 447.5,-111.59 452,-121.59 452,-121.59"/>
</g>
<!-- ApplicationRecord -->
<g id="node6" class="node"><title>ApplicationRecord</title>
<ellipse fill="none" stroke="black" cx="708" cy="-195" rx="97.7889" ry="18.3848"/>
<text text-anchor="middle" x="708" y="-191.4" font-family="Times Roman,serif" font-size="14.00">ApplicationRecord</text>
</g>
<!-- Product&#45;&gt;Order -->
<g id="edge8" class="edge"><title>Product&#45;&gt;Order</title>
<path fill="none" stroke="#92d3f1" d="M358.74,-69.0199C365.67,-61.0067 373.408,-52.0596 380.402,-43.9726"/>
<ellipse fill="none" stroke="#92d3f1" cx="356.109" cy="-72.0612" rx="4.00002" ry="4.00002"/>
<polygon fill="#92d3f1" stroke="#92d3f1" points="380.549,-43.8025 390.494,-39.1825 383.82,-40.0207 387.091,-36.2388 387.091,-36.2388 387.091,-36.2388 383.82,-40.0207 383.687,-33.2951 380.549,-43.8025 380.549,-43.8025"/>
</g>
<!-- User -->
<g id="node8" class="node"><title>User</title>
<ellipse fill="none" stroke="black" cx="558" cy="-195" rx="33.9411" ry="18.3848"/>
<text text-anchor="middle" x="558" y="-191.4" font-family="Times Roman,serif" font-size="14.00">User</text>
</g>
<!-- User&#45;&gt;Cart -->
<g id="edge10" class="edge"><title>User&#45;&gt;Cart</title>
<path fill="none" stroke="#c85b59" d="M537.695,-171.776C530.685,-164.038 522.663,-155.487 515,-148 503.467,-136.733 490.086,-124.892 478.629,-115.094"/>
<ellipse fill="none" stroke="#c85b59" cx="540.646" cy="-175.065" rx="4.00002" ry="4.00002"/>
<polygon fill="#c85b59" stroke="#c85b59" points="478.31,-114.824 473.59,-104.926 474.496,-111.592 470.681,-108.359 470.681,-108.359 470.681,-108.359 474.496,-111.592 467.772,-111.792 478.31,-114.824 478.31,-114.824"/>
</g>
</g>
</svg>
